<svg width="141" height="64" viewBox="0 0 141 64" fill="none" xmlns="http://www.w3.org/2000/svg">
<rect x="44" y="2" width="12" height="59" rx="6" fill="white"/>
<rect x="21" y="13" width="11" height="59" rx="5.5" transform="rotate(-90 21 13)" fill="white"/>
<path d="M87.5455 63C85.0351 63 83 60.9649 83 58.4545C83 55.4421 85.4421 53 88.4545 53H112C114.761 53 117 55.2386 117 58C117 60.7614 114.761 63 112 63H87.5455Z" fill="white"/>
<path d="M51 6C51 3.79086 52.7909 2 55 2C57.2091 2 59 3.79086 59 6V55C59 58.3137 56.3137 61 53 61H51V6Z" fill="#4C478D"/>
<path d="M51 13V2L89.5 2C92.5376 2 95 4.46243 95 7.5C95 10.5376 92.5376 13 89.5 13L51 13Z" fill="#4C478D"/>
<rect x="51" y="35" width="11" height="29" rx="5.5" transform="rotate(-90 51 35)" fill="#4C478D"/>
<rect x="0.0128784" y="34.1936" width="23.3947" height="5" rx="2.5" transform="rotate(-40.5 0.0128784 34.1936)" fill="#4C478D"/>
<rect width="23.3947" height="5" rx="2.5" transform="matrix(-0.760406 -0.649448 -0.649448 0.760406 140.037 34.1936)" fill="#4C478D"/>
<rect x="3.24724" y="31.0735" width="23.3947" height="5" rx="2.5" transform="rotate(40.5 3.24724 31.0735)" fill="#4C478D"/>
<rect width="23.3947" height="5" rx="2.5" transform="matrix(-0.760406 0.649448 0.649448 0.760406 136.789 31)" fill="#4C478D"/>
<path d="M100.053 5.42868C100.998 2.83379 103.867 1.49585 106.462 2.44031C109.057 3.38477 110.395 6.25399 109.45 8.84888L90.765 60.1863C90.0094 62.2622 87.7141 63.3325 85.6382 62.577C82.5243 61.4436 80.9188 58.0005 82.0521 54.8867L100.053 5.42868Z" fill="white"/>
</svg>
