<?xml version="1.0" encoding="UTF-8" standalone="no"?>
<!-- Created with Inkscape (http://www.inkscape.org/) -->

<svg
   width="207.44704mm"
   height="225.31822mm"
   viewBox="0 0 207.44704 225.31822"
   version="1.1"
   id="svg5"
   xml:space="preserve"
   inkscape:export-filename="bitmap.svg"
   inkscape:export-xdpi="96"
   inkscape:export-ydpi="96"
   xmlns:inkscape="http://www.inkscape.org/namespaces/inkscape"
   xmlns:sodipodi="http://sodipodi.sourceforge.net/DTD/sodipodi-0.dtd"
   xmlns:xlink="http://www.w3.org/1999/xlink"
   xmlns="http://www.w3.org/2000/svg"
   xmlns:svg="http://www.w3.org/2000/svg"><sodipodi:namedview
     id="namedview7"
     pagecolor="#ffffff"
     bordercolor="#000000"
     borderopacity="0.25"
     inkscape:showpageshadow="2"
     inkscape:pageopacity="0.0"
     inkscape:pagecheckerboard="0"
     inkscape:deskcolor="#d1d1d1"
     inkscape:document-units="mm"
     showgrid="false" /><defs
     id="defs2"><path
       d="m 12,160 c 0,66.27417 53.72583,120 120,120 66.27417,0 120,-53.72583 120,-120 h 12 V 0 H 0 v 160 z"
       id="react-path-2" /><path
       d="M 124,144.61095 V 163 h 4 v 0 c 39.7645,0 72,32.2355 72,72 v 9 H 0 v -9 c 0,-39.7645 32.235498,-72 72,-72 v 0 h 4 V 144.61095 C 58.762634,136.42237 46.372225,119.68701 44.305139,99.881238 38.480311,99.057787 34,94.05211 34,88 V 74 C 34,68.054007 38.324573,63.118073 44,62.165917 V 56 56 C 44,25.072054 69.072054,0 100,0 v 0 0 c 30.92795,0 56,25.072054 56,56 v 6.165917 c 5.67543,0.952156 10,5.88809 10,11.834083 v 14 c 0,6.05211 -4.48031,11.057787 -10.30514,11.881238 C 153.62778,119.68701 141.23736,136.42237 124,144.61095 Z"
       id="react-path-3" /><path
       d="M 108,13.070886 C 90.081301,15.075938 76.279842,20.551834 76.004203,34.644968 50.146433,45.568093 32,71.164626 32,100.99949 v 0 V 110 h 200 v -9.00051 C 232,71.164626 213.85357,45.568093 187.9958,34.644983 187.72016,20.551834 173.9187,15.075938 156,13.070886 V 32 32 c 0,13.254834 -10.74517,24 -24,24 v 0 C 118.74517,56 108,45.254834 108,32 Z"
       id="react-path-151" /><path
       d="M 35.117844,15.128077 C 36.175712,24.619802 44.225987,32 54,32 63.804206,32 71.874008,24.574136 72.891759,15.040055 72.973669,14.272746 72.116743,13 71.042767,13 c -14.894013,0 -26.304846,0 -33.955943,0 -1.080207,0 -2.074818,1.178444 -1.96898,2.128077 z"
       id="react-path-155" /><rect
       id="react-path-97"
       x="0"
       y="0"
       width="264"
       height="280" /><path
       d="m 183.67982,38.94882 c 5.40625,-4.950258 6.70757,-14.987275 3.63788,-21.499495 -3.76844,-7.9954719 -11.41638,-8.9971476 -18.74536,-5.480655 -6.90787,3.314896 -13.05717,4.419197 -20.62214,2.813062 -7.25858,-1.54104 -14.14463,-4.259115 -21.64681,-4.705485 -12.32536,-0.7333222 -24.30002,3.838318 -32.700267,13.053004 -1.602769,1.757914 -2.894174,3.767908 -4.114843,5.805136 -0.976735,1.630048 -2.07775,3.378995 -2.493234,5.257801 -0.197661,0.893405 0.170226,3.097689 -0.274676,3.829683 -0.48126,0.790447 -2.295903,1.515466 -3.069358,2.101992 -1.566741,1.188659 -2.924252,2.530094 -4.179628,4.047221 -2.666104,3.22157 -4.133685,6.586616 -5.367906,10.571731 -4.102945,13.24497 -4.450669,28.998447 0.853444,42.003957 0.707016,1.734334 2.89814,5.351788 4.186239,1.638019 0.254513,-0.733986 -0.334502,-3.194004 -0.33318,-3.934633 0.0046,-2.720067 1.506078,-20.728801 8.047103,-30.817138 2.12915,-3.283825 11.972806,-15.580774 13.983456,-15.679414 1.06526,1.692819 11.87999,12.508847 39.94284,11.241286 12.66187,-0.571919 22.39927,-6.260774 24.73745,-8.726801 1.02854,5.532797 12.9924,13.815905 14.81542,17.224107 5.26628,9.845497 6.43443,30.303522 8.44474,30.265139 2.01031,-0.03838 3.45344,-5.237557 3.86694,-6.230266 3.07167,-7.375402 3.59458,-16.632237 3.26702,-24.558628 -0.42739,-10.20208 -4.63842,-21.226492 -12.23513,-28.219623 z"
       id="react-path-96" /><filter
       x="0"
       y="0"
       width="1"
       height="1.0487804"
       filterUnits="objectBoundingBox"
       id="react-filter-141"><feOffset
         dx="0"
         dy="2"
         in="SourceAlpha"
         result="shadowOffsetOuter1"
         id="feOffset101" /><feColorMatrix
         values="0 0 0 0 0   0 0 0 0 0   0 0 0 0 0  0 0 0 0.2 0"
         type="matrix"
         in="shadowOffsetOuter1"
         result="shadowMatrixOuter1"
         id="feColorMatrix103" /><feMerge
         id="feMerge109"><feMergeNode
           in="shadowMatrixOuter1"
           id="feMergeNode105" /><feMergeNode
           in="SourceGraphic"
           id="feMergeNode107" /></feMerge></filter></defs><g
     inkscape:label="Layer 1"
     inkscape:groupmode="layer"
     id="layer1"
     transform="translate(28.078217,-12.892567)"><g
       style="fill:none"
       id="g144"
       transform="matrix(0.06402174,0,0,0.06402174,146.99513,66.550535)"><path
         d="m 400.327,398.836 c 17.671,-7.474 38.739,-10.194 65.924,-9.516 -0.765,-5.087 -10.479,-11.128 -17.596,-15.554 -2.389,-1.486 -4.485,-2.789 -5.852,-3.814 -10.874,-7.815 -22.428,-15.973 -33.98,-23.106 -3.722,-2.274 -9.08,-4.171 -14.237,-5.997 -3.317,-1.175 -6.55,-2.32 -9.211,-3.517 -2.718,-1.108 -6.421,-2.216 -10.418,-3.412 -9.495,-2.841 -20.654,-6.18 -24.242,-11.199 -9.24,-12.013 -15.688,-26.538 -22.127,-41.043 -0.665,-1.499 -1.331,-2.997 -1.999,-4.492 -3.37,-7.705 -7.12,-15.561 -10.891,-23.462 -4.211,-8.825 -8.449,-17.704 -12.215,-26.49 -1.641,-3.578 -2.889,-6.961 -4.117,-10.292 -1.57,-4.258 -3.109,-8.43 -5.397,-12.814 C 269.161,156.216 232.465,116.117 187.949,87.914 173.336,78.7388 157.028,70.2415 139.016,64.4665 133.516,62.8172 127.423,62.5517 121.27,62.2836 116.018,62.0547 110.723,61.824 105.716,60.7295 H 98.5786 C 94.4586,59.585 90.8009,56.2812 87.3985,53.2079 85.7501,51.719 84.1617,50.2843 82.6095,49.1753 72.0743,42.0403 61.5412,37.2799 48.9679,32.185 44.551,30.1471 31.9778,25.3889 27.5607,29.1281 c -2.7201,0.68 -4.0781,1.699 -4.7581,4.417 -2.718,4.0781 -0.3368,10.1942 1.3601,13.9312 3.3681,7.1856 7.6271,12.4425 11.9913,17.8294 2.2404,2.7653 4.5085,5.5648 6.698,8.6771 1.0458,1.4761 2.1361,2.9856 3.2448,4.5204 5.0154,6.9437 10.4056,14.4063 13.7455,21.6428 4.7129,10.153 8.0721,20.885 11.4191,31.578 2.9268,9.351 5.8443,18.672 9.6492,27.549 3.057,7.137 7.8151,15.291 12.2321,21.748 1.3854,1.89 3.1914,3.593 5.0196,5.316 3.1037,2.926 6.2707,5.912 7.5537,9.976 3.305,5.507 -2.762,21.277 -6.4487,30.859 -0.8628,2.243 -1.5952,4.147 -2.0465,5.5 -8.8362,27.863 -7.1372,66.601 3.0572,90.727 0.364,0.85 0.726,1.713 1.09,2.583 3.713,8.868 7.698,18.387 17.599,20.864 0.308,-0.308 0.338,-0.407 0.404,-0.454 0.08,-0.057 0.213,-0.039 0.956,-0.226 0.497,-3.906 0.921,-7.782 1.338,-11.604 1.579,-14.464 3.072,-28.148 8.176,-39.706 2.432,-5.968 6.445,-10.786 10.355,-15.481 2.102,-2.524 4.174,-5.012 5.956,-7.625 2.156,1.293 2.944,4.228 3.753,7.243 0.466,1.736 0.939,3.498 1.685,4.989 0.321,0.765 0.643,1.535 0.968,2.31 4.143,9.896 8.602,20.542 13.643,30.311 11.213,21.748 23.788,42.814 38.058,61.844 4.756,6.796 11.555,14.273 17.671,20.389 0.93,0.814 1.9,1.508 2.855,2.192 1.836,1.315 3.618,2.592 4.96,4.604 h 0.68 v 1.021 c -6.451,-2.366 -11.405,-7.454 -16.241,-12.421 -2.805,-2.882 -5.571,-5.723 -8.567,-7.967 -15.291,-11.555 -33.639,-28.886 -44.174,-45.535 -3.318,-7.147 -6.828,-14.103 -10.386,-21.155 -1.178,-2.335 -2.362,-4.681 -3.545,-7.049 0,0 0.001,-0.341 0,-0.68 -1.299,1.732 -1.494,3.463 -1.729,5.547 -0.133,1.186 -0.28,2.487 -0.65,3.968 -1.26,4.844 -1.884,9.882 -2.487,14.752 -1.512,12.206 -2.893,23.351 -13.824,27.723 -17.329,7.137 -30.2432,-11.556 -35.6792,-20.049 -17.3292,-28.203 -22.0874,-75.776 -9.8553,-114.174 0.9464,-2.955 1.6048,-6.116 2.2613,-9.268 1.2306,-5.909 2.4546,-11.785 5.556,-16.217 -0.6818,-4.084 -3.0287,-6.199 -5.3222,-8.267 -1.1414,-1.029 -2.2697,-2.046 -3.1729,-3.287 -4.7582,-6.455 -8.8341,-13.932 -12.5732,-21.067 -5.4332,-10.606 -9.6828,-22.789 -13.8013,-34.596 -1.2918,-3.703 -2.5706,-7.369 -3.869,-10.938 -1.16,-2.982 -1.9155,-5.965 -2.661,-8.908 -0.7835,-3.094 -1.5559,-6.143 -2.7751,-9.102 C 43.7179,101.003 38.3988,94.0445 33.4605,87.584 32.1293,85.8425 30.8258,84.1372 29.5988,82.4779 28.275,80.5782 26.5223,78.3763 24.5684,75.9219 14.9873,63.8859 0.570526,45.7752 8.19156,27.4291 22.4638,-7.57045 72.4178,18.9318 91.7828,31.1661 c 1.9365,1.245 3.9856,3.0526 6.1014,4.9189 3.0828,2.7193 6.3068,5.5635 9.5308,6.9743 4.249,0.1706 8.498,0.4254 12.746,0.6802 4.247,0.2547 8.494,0.5093 12.74,0.6799 1.391,0.3255 2.774,0.6458 4.149,0.9642 14.408,3.3366 27.867,6.4533 39.345,12.9669 58.447,34.3216 96.506,69.3215 131.505,127.0885 4.752,7.774 7.994,15.96 11.295,24.298 1.894,4.78 3.806,9.61 6.034,14.44 8.495,19.708 18.014,40.434 27.865,59.125 1.238,2.478 2.397,5.035 3.558,7.598 2.978,6.577 5.972,13.188 10.375,18.567 1.582,2.262 5.123,3.469 8.516,4.625 1.705,0.581 3.372,1.15 4.735,1.833 4.395,2.263 9.156,4.318 13.954,6.39 7.445,3.214 14.981,6.468 21.387,10.6 19.708,12.232 38.738,26.841 56.068,41.796 3.503,3.134 6.406,6.968 9.306,10.796 2.445,3.229 4.887,6.454 7.684,9.253 v 3.057 c -5.436,1.699 -10.874,3.398 -16.31,4.758 -5.915,1.52 -11.494,2.116 -17.029,2.708 -5.594,0.597 -11.144,1.19 -16.952,2.728 -0.732,0.209 -1.482,0.426 -2.247,0.646 -6.688,1.93 -14.491,4.182 -21.2,4.792 0.339,0.339 0.68,0.678 0.68,0.678 3.275,9.323 17.202,17.338 28.615,23.907 3.979,2.29 7.652,4.404 10.462,6.337 13.254,9.514 25.486,21.068 35.341,34.319 1.694,1.694 3.389,3.304 5.083,4.913 1.704,1.619 3.408,3.238 5.111,4.942 1.151,1.645 1.904,3.529 2.645,5.383 0.789,1.974 1.564,3.913 2.791,5.491 v 1.019 c -2.973,-1.061 -5.016,-3.185 -7.043,-5.291 -1.217,-1.265 -2.428,-2.524 -3.831,-3.543 -3.201,-2.182 -6.4,-4.551 -9.6,-6.921 -4.275,-3.166 -8.55,-6.331 -12.826,-9.05 -6.575,-4.153 -13.679,-7.425 -20.819,-10.713 -6.881,-3.168 -13.795,-6.352 -20.299,-10.355 -7.474,-4.758 -14.611,-10.194 -21.746,-15.63 -6.458,-4.759 -13.59,-13.936 -17.671,-20.73 -1.028,-1.615 -1.675,-3.357 -2.298,-5.035 -0.819,-2.203 -1.595,-4.295 -3.14,-5.839 0.509,-4.827 5.198,-6.046 9.663,-7.206 1.505,-0.391 2.985,-0.775 4.27,-1.289 z"
         fill="#4d468d"
         id="path132" /><path
         d="m 105.714,95.729 c 4.078,-1.019 8.154,-1.7012 13.932,-1.7012 1.076,1.0778 2.42,1.995 3.778,2.9211 2.068,1.4112 4.166,2.8432 5.397,4.8961 0.755,1.057 1.241,2.114 1.727,3.171 0.609,1.322 1.217,2.644 2.351,3.966 0,8.154 -2.377,13.59 -7.137,16.991 0,0 -0.339,0.338 -0.678,0.68 -1.358,-2.716 -2.631,-5.431 -3.903,-8.145 -1.276,-2.723 -2.552,-5.446 -3.915,-8.168 -1.323,-1.852 -2.852,-3.55 -4.386,-5.253 -2.406,-2.672 -4.825,-5.3587 -6.486,-8.6779 h -0.68 z"
         fill="#4d468d"
         id="path134" /></g><g
       style="fill:none"
       id="g156"
       transform="matrix(0.06956344,0,0,0.06956344,-30.512597,137.19918)"><path
         id="Shape"
         fill-rule="evenodd"
         clip-rule="evenodd"
         d="m 256.453,-635.97337 c -6.877,0 -13.296,-1.834 -19.257,-5.043 l -60.979,-36.22099 c -9.17,-5.04401 -4.585,-6.878 -1.834,-7.795 12.379,-4.12601 14.671,-5.04301 27.509,-12.37901 1.376,-0.917 3.21,-0.459 4.585,0.458 l 46.767,27.96901 c 1.834,0.91699 4.126,0.91699 5.502,0 l 182.939,-105.913 c 1.834,-0.917 2.751,-2.75101 2.751,-5.04301 v -211.367 c 0,-2.292 -0.917,-4.12599 -2.751,-5.04299 L 258.746,-1101.8049 c -1.834,-0.917 -4.127,-0.917 -5.502,0 L 70.3041,-996.35036 c -1.8339,0.917 -2.7509,3.20899 -2.7509,5.04299 v 211.367 c 0,1.834 0.917,4.12601 2.7509,5.04301 l 49.9759,28.885 c 27.051,13.75499 44.016,-2.29201 44.016,-18.33901 v -208.61599 c 0,-2.75101 2.292,-5.50201 5.502,-5.50201 h 23.383 c 2.751,0 5.502,2.293 5.502,5.50201 v 208.61599 c 0,36.221 -19.715,57.31101 -54.103,57.31101 -10.545,0 -18.798,0 -42.181,-11.46201 L 54.2568,-746.01236 C 42.3359,-752.88936 35,-765.72737 35,-779.48237 v -211.366 c 0,-13.75503 7.3359,-26.59303 19.2568,-33.47013 l 182.9392,-105.9132 c 11.463,-6.419 27.052,-6.419 38.514,0 l 182.94,105.9132 c 11.921,6.8771 19.257,19.7151 19.257,33.47013 v 211.366 c 0,13.755 -7.336,26.59301 -19.257,33.47001 l -182.94,105.91299 c -5.96,2.751 -12.838,4.126 -19.257,4.126 z m 56.395,-145.343 c -80.236,0 -96.742,-36.679 -96.742,-67.857 0,-2.75099 2.292,-5.502 5.502,-5.502 h 23.841 c 2.751,0 5.044,1.83401 5.044,4.585 3.668,24.3 14.213,36.22101 62.814,36.22101 38.513,0 55.019,-8.711 55.019,-29.34401 0,-11.921 -4.585,-20.632 -64.648,-26.592 -49.976,-5.04399 -81.153,-16.048 -81.153,-55.937 0,-37.138 31.177,-59.146 83.446,-59.146 58.687,0 87.572,20.174 91.24,64.19001 0,1.37499 -0.458,2.75099 -1.375,4.12599 -0.917,0.917 -2.293,1.834 -3.668,1.834 h -23.842 c -2.292,0 -4.585,-1.834 -5.043,-4.126 -5.502,-25.21799 -19.716,-33.471 -57.312,-33.471 -42.182,0 -47.225,14.672 -47.225,25.676 0,13.29701 5.96,17.423 62.814,24.759 56.395,7.336 82.987,17.881 82.987,57.31201 -0.458,40.34699 -33.47,63.27199 -91.699,63.27199 z"
         fill="#4d468d" /></g><g
       transform="matrix(0.45771404,0,0,0.45771404,13.935367,57.715827)"
       id="g124"
       style="fill:none;fill-rule:evenodd;stroke:none;stroke-width:1"><mask
         id="react-mask-5"
         fill="#ffffff"><use
           xlink:href="#react-path-2"
           id="use16" /></mask><g
         id="Mask" /><g
         id="Avataaar"
         stroke-width="1"
         fill-rule="evenodd"
         mask="url(#react-mask-5)"><g
           id="Body"
           transform="translate(32,36)"><mask
             id="react-mask-6"
             fill="#ffffff"><use
               xlink:href="#react-path-3"
               id="use20" /></mask><use
             fill="#d0c6ac"
             xlink:href="#react-path-3"
             id="use23" /><g
             id="Skin/ðŸ‘¶ðŸ½-03-Brown"
             mask="url(#react-mask-6)"
             fill="#ffdbb4"><g
               id="Color"><rect
                 x="0"
                 y="0"
                 width="264"
                 height="280"
                 id="rect25" /></g></g><path
             d="m 156,79 v 23 c 0,30.92795 -25.07205,56 -56,56 -30.927946,0 -56,-25.07205 -56,-56 V 79 94 c 0,30.92795 25.072054,56 56,56 30.92795,0 56,-25.07205 56,-56 z"
             id="Neck-Shadow"
             fill-opacity="0.1"
             fill="#000000"
             mask="url(#react-mask-6)" /></g><g
           id="Clothing/Hoodie"
           transform="translate(0,170)"><defs
             id="defs32" /><mask
             id="react-mask-152"
             fill="#ffffff"><use
               xlink:href="#react-path-151"
               id="use34" /></mask><use
             id="Hoodie"
             fill="#b7c1db"
             fill-rule="evenodd"
             xlink:href="#react-path-151" /><g
             id="Color/Palette/Gray-01"
             mask="url(#react-mask-152)"
             fill-rule="evenodd"
             fill="#262e33"><rect
               id="rect38"
               x="0"
               y="0"
               width="264"
               height="110" /></g><path
             d="M 102,61.739053 V 110 H 95 V 58.150262 c 2.203754,1.309796 4.546769,2.510526 7,3.588791 z m 67,-3.588791 V 98.5 c 0,1.933 -1.567,3.5 -3.5,3.5 -1.933,0 -3.5,-1.567 -3.5,-3.5 V 61.739053 c 2.45323,-1.078265 4.79625,-2.278995 7,-3.588791 z"
             id="Straps"
             fill="#f4f4f4"
             fill-rule="evenodd"
             mask="url(#react-mask-152)" /><path
             d="M 90.960133,12.724354 C 75.90931,15.571178 65.5,21.242885 65.5,32.307692 65.5,52.020009 98.537681,68 132,68 165.46232,68 198.5,52.020009 198.5,32.307692 198.5,21.242885 188.09069,15.571178 173.03987,12.724354 182.12492,16.07446 188,21.706055 188,31.076923 188,51.468975 160.17879,68 132,68 103.82121,68 76,51.468975 76,31.076923 76,21.706055 81.875079,16.07446 90.960133,12.724354 Z"
             id="Shadow"
             fill-opacity="0.16"
             fill="#000000"
             fill-rule="evenodd"
             mask="url(#react-mask-152)" /></g><g
           id="Face"
           transform="translate(76,82)"
           fill="#000000"><g
             id="Mouth/Smile"
             transform="translate(2,52)"><defs
               id="defs45" /><mask
               id="react-mask-156"
               fill="#ffffff"><use
                 xlink:href="#react-path-155"
                 id="use47" /></mask><use
               id="Mouth"
               fill-opacity="0.7"
               fill="#000000"
               fill-rule="evenodd"
               xlink:href="#react-path-155" /><rect
               id="Teeth"
               fill="#ffffff"
               fill-rule="evenodd"
               mask="url(#react-mask-156)"
               x="39"
               y="2"
               width="31"
               height="16"
               rx="5" /><g
               id="Tongue"
               stroke-width="1"
               fill-rule="evenodd"
               mask="url(#react-mask-156)"
               fill="#ff4f6d"><g
                 transform="translate(38,24)"
                 id="g56"><circle
                   cx="11"
                   cy="11"
                   r="11"
                   id="circle52" /><circle
                   cx="21"
                   cy="11"
                   r="11"
                   id="circle54" /></g></g></g><g
             id="Nose/Default"
             transform="translate(28,40)"
             fill-opacity="0.16"><path
               d="m 16,8 c 0,4.418278 5.372583,8 12,8 v 0 c 6.627417,0 12,-3.581722 12,-8"
               id="Nose" /></g><g
             id="Eyes/Default-ðŸ˜€"
             transform="translate(0,8)"
             fill-opacity="0.6"><circle
               id="Eye"
               cx="30"
               cy="22"
               r="6" /><circle
               id="circle63"
               cx="82"
               cy="22"
               r="6" /></g><g
             id="Eyebrow/Natural/Default-Natural"
             fill-opacity="0.6"><path
               d="M 26.039093,6.2101236 C 20.277555,6.9834622 11.292931,12.005248 12.04426,17.817811 c 0.02469,0.190243 0.31247,0.249536 0.436648,0.09068 2.486496,-3.188159 21.711889,-7.871946 28.713359,-6.893779 0.640785,0.08973 1.063799,-0.571681 0.626783,-0.984508 C 38.076566,6.4948543 31.200379,5.5122482 26.039093,6.2101236"
               id="Eyebrow"
               transform="rotate(5,27,12)" /><path
               d="M 85.039093,6.2101236 C 79.277555,6.9834622 70.292931,12.005248 71.04426,17.817811 c 0.02469,0.190243 0.31247,0.249536 0.436648,0.09068 2.486496,-3.188159 21.711889,-7.871946 28.713362,-6.893779 0.64078,0.08973 1.0638,-0.571681 0.62678,-0.984508 C 97.076566,6.4948543 90.200379,5.5122482 85.039093,6.2101236"
               id="path67"
               transform="matrix(-0.9961947,0.08715574,0.08715574,0.9961947,170.62688,-7.4497303)" /></g></g><g
           id="Top"
           stroke-width="1"
           fill-rule="evenodd"><defs
             id="defs84" /><mask
             id="react-mask-95"
             fill="#ffffff"><use
               xlink:href="#react-path-97"
               id="use86" /></mask><g
             id="g89" /><g
             id="Top/Short-Hair/Short-Waved"
             mask="url(#react-mask-95)"><g
               transform="translate(-1)"
               id="g119"><mask
                 id="react-mask-94"
                 fill="#ffffff"><use
                   xlink:href="#react-path-96"
                   id="use91" /></mask><use
                 id="Short-Hair"
                 stroke="none"
                 fill="#28354b"
                 fill-rule="evenodd"
                 xlink:href="#react-path-96" /><g
                 id="g99"
                 mask="url(#react-mask-94)"
                 fill="#4a312c"><g
                   id="g97"><rect
                     x="0"
                     y="0"
                     width="264"
                     height="280"
                     id="rect95" /></g></g><g
                 id="Top/_Resources/Prescription-02"
                 fill="none"
                 transform="translate(62,85)"
                 stroke-width="1"><defs
                   id="defs112" /><g
                   id="Wayfarers"
                   filter="url(#react-filter-141)"
                   transform="translate(6,7)"
                   fill="#252c2f"><path
                     d="M 34,41 H 31.24215 C 17.314712,41 9,33.335929 9,20.5 9,10.127 10.817006,0 32.529931,0 h 2.940138 C 57.182994,0 59,10.127 59,20.5 59,32.568643 48.721275,41 34,41 Z M 32.385361,6 C 13,6 13,12.841016 13,21.50155 13,28.571943 16.116254,37 30.970936,37 H 34 C 46.364908,37 55,30.627037 55,21.50155 55,12.841016 55,6 35.614639,6 Z"
                     id="Left"
                     fill-rule="nonzero" /><path
                     d="M 96,41 H 93.24215 C 79.314712,41 71,33.335929 71,20.5 71,10.127 72.817006,0 94.529931,0 h 2.940138 C 119.18299,0 121,10.127 121,20.5 121,32.568643 110.72128,41 96,41 Z M 94.385361,6 C 75,6 75,12.841016 75,21.50155 75,28.571943 78.119483,37 92.970936,37 H 96 c 12.36491,0 21,-6.372963 21,-15.49845 C 117,12.841016 117,6 97.614639,6 Z"
                     id="Right"
                     fill-rule="nonzero" /><path
                     d="M 2.9545455,5.7715644 C 3.6459091,5.0962914 11.209546,0 32.5,0 50.351364,0 54.130227,1.8526722 59.850227,4.6518809 l 0.418696,0.2066281 c 0.397678,0.14051 2.431322,0.8313208 4.810138,0.9072862 C 67.246295,5.6727857 69.10002,5.0854019 69.641698,4.8971977 76.170391,1.7220864 82.561097,0 97.5,0 c 21.29045,0 28.85409,5.0962914 29.54546,5.7715644 1.63386,0 2.95454,1.2899446 2.95454,2.8857822 v 2.8857824 c 0,1.595837 -1.32068,2.885782 -2.95454,2.885782 0,0 -6.90146,0 -6.90146,2.885782 0,2.885782 -1.96218,-4.175727 -1.96218,-5.771564 V 8.7324025 C 114.57858,7.3534015 108.12841,4.7861753 97.5,4.7861753 c -11.841535,0 -17.738902,2.0998528 -22.797707,4.1849484 l 0.05657,0.1364049 -0.0025,1.9862324 -2.2172,5.349873 -2.738676,-1.082799 c -0.244594,-0.09671 -0.772351,-0.270443 -1.50414,-0.450931 -2.040079,-0.503162 -4.137442,-0.656335 -5.992267,-0.275596 -0.680494,0.139685 -1.311855,0.349301 -1.891271,0.632424 L 57.770482,16.55787 55.126675,11.396203 55.244091,9.1017571 55.32482,8.9068386 C 50.962053,6.8738637 46.939264,4.7861753 32.5,4.7861753 c -10.627854,0 -17.077869,2.5662644 -20.681818,3.9452918 v 2.8116619 c 0,1.595837 -2.9545456,8.657346 -2.9545456,5.771564 0,-2.885782 -5.9090909,-2.885782 -5.9090909,-2.885782 C 1.3236364,14.428911 0,13.138966 0,11.543129 V 8.6573466 C 0,7.061509 1.3236364,5.7715644 2.9545455,5.7715644 Z"
                     id="Stuff"
                     fill-rule="nonzero" /></g></g></g></g></g></g></g><g
       style="fill:none"
       id="g508"
       transform="matrix(0.06066961,0,0,0.06066961,61.584986,12.892568)"><g
         id="symbol"><path
           id="Shape-3"
           fill-rule="evenodd"
           clip-rule="evenodd"
           d="M 71.0852,460.819 30,0 H 481.456 L 440.327,460.746 255.451,512 Z"
           fill="#312c5a" /><path
           id="Shape_2"
           fill-rule="evenodd"
           clip-rule="evenodd"
           d="M 255.728,472.824 405.116,431.408 440.263,37.6788 H 255.728 Z"
           fill="#4d468d" /><g
           id="Union"><path
             d="m 180.94,208.59 h 74.788 v 56.517 H 129.253 L 114.009,94.1969 h 141.719 v 56.5181 h -79.953 z"
             fill="#ebebeb"
             id="path472" /><path
             d="m 255.48,355.438 0.248,-0.066 v 58.802 l -0.26,0.072 -115.772,-32.139 -7.918,-88.741 h 56.735 l 4.023,45.076 z"
             fill="#ebebeb"
             id="path474" /></g><g
           id="Union_2"><path
             d="M 255.532,94.1969 H 397.11 l -5.061,56.5181 H 255.532 Z"
             fill="#ffffff"
             id="path477" /><path
             d="M 255.532,265.107 V 208.59 h 131.375 l -1.379,15.176 -14.132,158.341 -115.864,32.112 v -58.8 l 63.035,-17.013 6.561,-73.299 z"
             fill="#ffffff"
             id="path479" /></g></g></g><g
       style="fill:none"
       id="g552"
       transform="matrix(0.08370041,0,0,0.08370041,55.689599,195.8885)"><g
         id="Union-3"><path
           d="m 305.738,6.53676 c 0,0 51.86,51.87664 -49.186,131.64824 -62.657,49.483 -39.46,82.518 -17.192,114.23 6.528,9.298 12.977,18.482 17.159,27.933 -47.298,-42.674 -82.008,-80.24 -58.722,-115.203 11.372,-17.076 29.442,-31.225 47.724,-45.54 36.665,-28.708 74.18,-58.0823 60.217,-113.06824 z"
           fill="#4d468d"
           id="path510" /><path
           d="m 279.008,245.183 c 24.075,27.718 -6.325,52.66 -6.325,52.66 0,0 61.129,-31.557 33.055,-71.074 -1.126,-1.582 -2.241,-3.131 -3.335,-4.651 -24.374,-33.856 -38.317,-53.222 65.861,-113.641 0,0 -170.863,42.674 -89.256,136.706 z"
           fill="#4d468d"
           id="path512" /><path
           d="m 189.637,357.091 c -32.67,-3.379 -11.278,-19.214 -11.278,-19.214 -84.5409,28.059 47.036,59.878 165.167,25.335 -12.556,-4.427 -20.541,-12.523 -20.541,-12.523 -57.734,11.117 -91.099,10.761 -133.348,6.402 z"
           fill="#4d468d"
           id="path514" /><path
           d="m 203.871,407.366 c -32.646,-3.753 -13.573,-14.845 -13.573,-14.845 -76.743,21.443 46.678,65.743 144.383,23.869 -16.003,-6.223 -27.462,-13.408 -27.462,-13.408 -43.584,8.249 -63.798,8.896 -103.348,4.384 z"
           fill="#4d468d"
           id="path516" /><path
           d="m 392.687,453.566 c 29.658,-8.997 15.544,-20.627 15.544,-20.627 51.672,23.308 -112.258,70.161 -311.467,37.855 -73.0468,-11.841 35.158,-53.187 54.963,-39.235 0,0 -6.261,-0.443 -17.217,1.933 -10.505,2.256 -43.9005,13.007 -26.092,20.754 49.54,21.563 227.872,16.404 284.269,-0.68 z"
           fill="#4d468d"
           id="path518" /><path
           d="m 199.47,281.26 c 0,0 -90.712,21.545 -32.124,29.369 24.738,3.312 74.052,2.563 119.987,-1.286 37.54,-3.167 75.235,-9.9 75.235,-9.9 0,0 -13.237,5.669 -22.814,12.209 -92.115,24.226 -270.0655,12.956 -218.836,-11.825 43.325,-20.943 78.552,-18.567 78.552,-18.567 z"
           fill="#4d468d"
           id="path520" /><path
           d="m 382.319,283.098 c 30.22,-6.3 73.515,40.46 -20.125,89.119 -0.433,1.159 -1.882,2.453 -1.882,2.453 125.061,-32.877 79.083,-115.885 19.299,-94.867 -5.252,1.864 -8.001,6.172 -8.001,6.172 0,0 3.302,-1.336 10.709,-2.877 z"
           fill="#4d468d"
           id="path522" /><path
           d="m 439.847,458.349 c -3.269,42.53 -141.294,51.476 -231.176,45.722 -58.636,-3.76 -70.388,-13.157 -70.56,-13.294 l -0.002,-0.002 c 56.119,9.253 150.739,10.938 227.455,-3.499 68,-12.804 74.283,-28.927 74.283,-28.927 z"
           fill="#4d468d"
           id="path524" /></g></g><g
       style="fill:none"
       id="g564"
       transform="matrix(0.06162027,0,0,0.06162027,-28.447598,153.71113)"><path
         id="Shape-7"
         fill-rule="evenodd"
         clip-rule="evenodd"
         d="M 6,6 H 506 V 506 H 6 Z m 131.468,417.837 0.001,-10e-4 c 11.076,23.491 32.895,42.957 70.481,42.957 41.62,0 70.147,-22.152 70.147,-70.818 V 235.548 H 231.11 V 395.31 c 0,23.492 -9.735,29.532 -25.174,29.532 -16.107,0 -22.823,-11.074 -30.204,-24.162 l -38.263,23.156 -0.002,-0.003 z m 204.41,-27.187 -38.258,22.152 c 13.759,27.187 41.952,47.995 85.584,47.995 44.638,0 77.865,-23.157 77.865,-65.449 0,-39.267 -22.488,-56.718 -62.429,-73.836 l -11.746,-5.034 c -20.135,-8.727 -28.862,-14.434 -28.862,-28.531 0,-11.41 8.727,-20.136 22.488,-20.136 13.424,0 22.148,5.705 30.204,20.136 l 36.584,-23.493 c -15.437,-27.187 -36.918,-37.592 -66.789,-37.592 -41.955,0 -68.805,26.852 -68.805,62.093 0,38.262 22.488,56.386 56.388,70.816 l 11.744,5.038 c 21.481,9.394 34.234,15.101 34.234,31.211 0,13.425 -12.415,23.159 -31.884,23.159 -23.157,0 -36.247,-12.081 -46.318,-28.529 z"
         fill="#4d468d" /></g><g
       style="fill:none"
       id="g7998"
       transform="matrix(0.05898143,0,0,0.05898143,143.74783,162.06218)"><path
         fill-rule="evenodd"
         clip-rule="evenodd"
         d="M 71.0864,460.816 30,0 H 481.474 L 440.344,460.741 255.464,512 Z"
         fill="#312c5a"
         id="path7965" /><path
         fill-rule="evenodd"
         clip-rule="evenodd"
         d="M 256.116,472.795 405.323,431.748 440.282,38.3764 H 256.116 Z"
         fill="#4d468d"
         id="path7967" /><path
         fill-rule="evenodd"
         clip-rule="evenodd"
         d="m 124.047,207.678 4.949,56.434 127.12,-56.434 v -56.526 z"
         fill="#b3b3b3"
         id="path7969" /><path
         fill-rule="evenodd"
         clip-rule="evenodd"
         d="m 396.906,90.8141 -140.79,60.3379 v 56.526 l 135.936,-60.43 z"
         fill="#e6e6e6"
         id="path7971" /><path
         fill-rule="evenodd"
         clip-rule="evenodd"
         d="m 256.116,355.337 -0.437,0.066 -63.042,-16.931 -4.119,-45.014 H 131.78 l 7.918,88.681 115.969,32.11 0.449,-0.106 z"
         fill="#e6e6e6"
         id="path7973" /><path
         fill-rule="evenodd"
         clip-rule="evenodd"
         d="m 256.116,207.678 v 56.434 h 69.022 l -6.274,73.784 -62.748,17.49 v 58.801 l 115.585,-32.11 15.22,-174.399 z"
         fill="#ffffff"
         id="path7975" /><path
         fill-rule="evenodd"
         clip-rule="evenodd"
         d="M 256.116,207.678 H 124.047 l 4.949,56.434 h 127.12 z"
         fill="#e6e6e6"
         id="path7977" /><path
         fill-rule="evenodd"
         clip-rule="evenodd"
         d="M 256.116,147.248 V 90.8141 h -0.573 -141.53 l 5.008,56.4339 z"
         fill="#e6e6e6"
         id="path7979" /><path
         fill-rule="evenodd"
         clip-rule="evenodd"
         d="m 256.116,90.8141 v 55.7269 0.707 h 135.936 l 4.854,-56.4339 z"
         fill="#ffffff"
         id="path7981" /></g></g></svg>
